<svg xmlns="http://www.w3.org/2000/svg" xmlns:xlink="http://www.w3.org/1999/xlink" width="500" zoomAndPan="magnify" viewBox="0 0 375 374.999991" height="500" preserveAspectRatio="xMidYMid meet" version="1.0"><defs><g/><clipPath id="fe614c3b59"><path d="M 243.222656 177.847656 L 276.972656 177.847656 L 276.972656 211 L 243.222656 211 Z M 243.222656 177.847656 " clip-rule="nonzero"/></clipPath><clipPath id="8c62a19153"><path d="M 243.222656 182.667969 L 243.222656 206.101562 C 243.222656 208.761719 245.378906 210.921875 248.042969 210.921875 L 271.964844 210.921875 C 274.625 210.921875 276.785156 208.761719 276.785156 206.101562 L 276.785156 182.667969 C 276.785156 180.003906 274.625 177.847656 271.964844 177.847656 L 248.042969 177.847656 C 245.378906 177.847656 243.222656 180.003906 243.222656 182.667969 Z M 243.222656 182.667969 " clip-rule="nonzero"/></clipPath><clipPath id="27ca8291bb"><path d="M 191.632812 159.871094 L 208.535156 159.871094 L 208.535156 177.847656 L 191.632812 177.847656 Z M 191.632812 159.871094 " clip-rule="nonzero"/></clipPath><clipPath id="8a0cc58ea2"><path d="M 201.011719 163.046875 L 206.90625 163.046875 L 206.90625 168.941406 L 201.011719 168.941406 Z M 201.011719 163.046875 " clip-rule="nonzero"/></clipPath><clipPath id="6f665015ad"><path d="M 203.957031 163.046875 C 202.332031 163.046875 201.011719 164.367188 201.011719 165.996094 C 201.011719 167.621094 202.332031 168.941406 203.957031 168.941406 C 205.585938 168.941406 206.90625 167.621094 206.90625 165.996094 C 206.90625 164.367188 205.585938 163.046875 203.957031 163.046875 Z M 203.957031 163.046875 " clip-rule="nonzero"/></clipPath><clipPath id="5bf72c5f2a"><path d="M 205.0625 168.285156 L 213.097656 168.285156 L 213.097656 175.785156 L 205.0625 175.785156 Z M 205.0625 168.285156 " clip-rule="nonzero"/></clipPath><clipPath id="981460a4b9"><path d="M 192.171875 168 L 203.957031 168 L 203.957031 178 L 192.171875 178 Z M 192.171875 168 " clip-rule="nonzero"/></clipPath></defs><rect x="-37.5" width="450" fill="#ffffff" y="-37.499999" height="449.999989" fill-opacity="1"/><g fill="#2b2b2b" fill-opacity="1"><g transform="translate(91.548549, 206.155531)"><g/></g></g><g fill="#2b2b2b" fill-opacity="1"><g transform="translate(104.924665, 206.155531)"><g><path d="M 29.875 -4.21875 C 26.613281 -1.507812 22.894531 -0.15625 18.71875 -0.15625 C 13.988281 -0.15625 9.941406 -1.832031 6.578125 -5.1875 C 3.222656 -8.550781 1.546875 -12.597656 1.546875 -17.328125 C 1.546875 -22.097656 3.222656 -26.160156 6.578125 -29.515625 C 9.941406 -32.878906 13.988281 -34.5625 18.71875 -34.5625 C 22.9375 -34.5625 26.65625 -33.1875 29.875 -30.4375 L 24.734375 -25.34375 C 22.984375 -26.6875 20.976562 -27.359375 18.71875 -27.359375 C 15.976562 -27.359375 13.628906 -26.378906 11.671875 -24.421875 C 9.710938 -22.472656 8.734375 -20.109375 8.734375 -17.328125 C 8.734375 -14.585938 9.710938 -12.238281 11.671875 -10.28125 C 13.628906 -8.332031 15.976562 -7.359375 18.71875 -7.359375 C 20.976562 -7.359375 22.984375 -8.023438 24.734375 -9.359375 Z M 29.875 -4.21875 "/></g></g></g><g fill="#2b2b2b" fill-opacity="1"><g transform="translate(137.890359, 206.155531)"><g><path d="M 1.546875 -26.578125 L 8.234375 -26.578125 L 8.234375 -13.21875 C 8.234375 -12.695312 8.316406 -12.113281 8.484375 -11.46875 C 8.691406 -10.675781 9 -9.957031 9.40625 -9.3125 C 10.539062 -7.59375 12.15625 -6.734375 14.25 -6.734375 C 16.539062 -6.734375 18.203125 -7.609375 19.234375 -9.359375 C 19.609375 -9.972656 19.878906 -10.691406 20.046875 -11.515625 C 20.191406 -12.097656 20.265625 -12.679688 20.265625 -13.265625 L 20.265625 -26.578125 L 27.453125 -26.578125 L 27.453125 0 L 20.265625 0 L 20.265625 -2.78125 C 18.578125 -0.925781 16.414062 0 13.78125 0 C 10.382812 0.03125 7.503906 -1.1875 5.140625 -3.65625 C 2.742188 -6.082031 1.546875 -9.097656 1.546875 -12.703125 Z M 1.546875 -26.578125 "/></g></g></g><g fill="#2b2b2b" fill-opacity="1"><g transform="translate(166.896062, 206.155531)"><g><path d="M 8.734375 -35.734375 L 8.734375 0 L 1.546875 0 L 1.546875 -35.734375 Z M 8.734375 -35.734375 "/></g></g></g><g fill="#2b2b2b" fill-opacity="1"><g transform="translate(177.181774, 206.155531)"><g><path d="M 20.625 -26.484375 L 20.625 -19.28125 L 14.703125 -19.28125 L 14.703125 0 L 7.5 0 L 7.5 -19.28125 L 1.546875 -19.28125 L 1.546875 -26.484375 L 7.5 -26.484375 L 7.5 -35.734375 L 14.703125 -35.734375 L 14.703125 -26.484375 Z M 20.625 -26.484375 "/></g></g></g><g fill="#2b2b2b" fill-opacity="1"><g transform="translate(199.347475, 206.155531)"><g><path d="M 8.6875 -35.84375 L 8.6875 -29.765625 L 1.546875 -29.765625 L 1.546875 -35.84375 Z M 8.734375 -26.4375 L 8.734375 0 L 1.546875 0 L 1.546875 -26.4375 Z M 8.734375 -26.4375 "/></g></g></g><g fill="#2b2b2b" fill-opacity="1"><g transform="translate(209.633187, 206.155531)"><g><path d="M 32.140625 -26.484375 L 19.84375 0 L 14.390625 0 L 1.546875 -26.484375 L 9.921875 -26.484375 L 17.125 -11.671875 L 23.8125 -26.484375 Z M 32.140625 -26.484375 "/></g></g></g><g fill="#2b2b2b" fill-opacity="1"><g transform="translate(243.323099, 206.155531)"><g/></g></g><g fill="#2b2b2b" fill-opacity="1"><g transform="translate(256.694522, 206.155531)"><g/></g></g><g fill="#2b2b2b" fill-opacity="1"><g transform="translate(270.065945, 206.155531)"><g/></g></g><g clip-path="url(#fe614c3b59)"><g clip-path="url(#8c62a19153)"><path fill="#2b2b2b" d="M 267.253906 204.441406 L 276.839844 214.023438 L 275.480469 215.382812 C 275.140625 215.722656 274.949219 216.183594 274.949219 216.664062 C 274.949219 217.144531 275.140625 217.605469 275.480469 217.941406 C 275.480469 217.941406 283.730469 226.191406 288.09375 230.558594 C 290.257812 232.722656 293.765625 232.722656 295.929688 230.558594 L 295.929688 230.554688 C 298.097656 228.390625 298.097656 224.878906 295.929688 222.714844 L 283.320312 210.105469 C 282.613281 209.398438 281.464844 209.398438 280.757812 210.105469 L 279.402344 211.464844 L 269.816406 201.878906 C 271.792969 199.355469 272.972656 196.175781 272.972656 192.722656 C 272.972656 184.511719 266.308594 177.847656 258.097656 177.847656 C 249.886719 177.847656 243.222656 184.511719 243.222656 192.722656 C 243.222656 200.929688 249.886719 207.597656 258.097656 207.597656 C 261.550781 207.597656 264.730469 206.417969 267.253906 204.441406 Z M 282.039062 213.945312 L 293.371094 225.277344 C 294.121094 226.027344 294.121094 227.242188 293.371094 227.992188 C 293.371094 227.992188 293.367188 227.996094 293.367188 227.996094 C 292.617188 228.746094 291.40625 228.746094 290.65625 227.996094 C 290.65625 227.996094 279.324219 216.664062 279.324219 216.664062 Z M 258.097656 181.46875 C 264.308594 181.46875 269.351562 186.511719 269.351562 192.722656 C 269.351562 198.933594 264.308594 203.972656 258.097656 203.972656 C 251.886719 203.972656 246.84375 198.933594 246.84375 192.722656 C 246.84375 186.511719 251.886719 181.46875 258.097656 181.46875 Z M 258.097656 187.066406 C 261.21875 187.066406 263.75 189.601562 263.75 192.722656 C 263.75 193.722656 264.5625 194.53125 265.5625 194.53125 C 266.5625 194.53125 267.375 193.722656 267.375 192.722656 C 267.375 187.601562 263.214844 183.445312 258.097656 183.445312 C 257.097656 183.445312 256.285156 184.257812 256.285156 185.257812 C 256.285156 186.253906 257.097656 187.066406 258.097656 187.066406 Z M 258.097656 187.066406 " fill-opacity="1" fill-rule="evenodd"/></g></g><g clip-path="url(#27ca8291bb)"><path fill="#ffffff" d="M 191.632812 159.871094 L 208.535156 159.871094 L 208.535156 177.828125 L 191.632812 177.828125 Z M 191.632812 159.871094 " fill-opacity="1" fill-rule="nonzero"/></g><g clip-path="url(#8a0cc58ea2)"><g clip-path="url(#6f665015ad)"><path fill="#f4ea00" d="M 201.011719 163.046875 L 206.90625 163.046875 L 206.90625 168.941406 L 201.011719 168.941406 Z M 201.011719 163.046875 " fill-opacity="1" fill-rule="nonzero"/></g></g><g clip-path="url(#5bf72c5f2a)"><path fill="#eec759" d="M 211.382812 169.660156 C 207.546875 169.640625 205.488281 171.433594 205.3125 175.140625 C 205.308594 175.1875 205.242188 175.191406 205.234375 175.144531 C 205.0625 173.933594 205.097656 172.828125 205.402344 171.867188 C 206.417969 168.703125 210.289062 168.285156 213.035156 169.289062 C 213.171875 169.339844 213.199219 169.515625 213.085938 169.605469 C 210.945312 171.320312 211.234375 175.992188 206.019531 173.96875 C 206.835938 171.4375 208.503906 169.867188 211.382812 169.660156 " fill-opacity="1" fill-rule="evenodd"/></g><g clip-path="url(#981460a4b9)"><path fill="#eec759" d="M 194.800781 169.738281 C 200.359375 169.714844 203.339844 172.308594 203.597656 177.679688 C 203.601562 177.746094 203.699219 177.75 203.707031 177.683594 C 203.957031 175.929688 203.90625 174.328125 203.460938 172.941406 C 201.992188 168.351562 196.386719 167.75 192.40625 169.203125 C 192.210938 169.273438 192.167969 169.53125 192.335938 169.660156 C 195.4375 172.144531 195.015625 178.914062 202.566406 175.980469 C 201.386719 172.3125 198.96875 170.042969 194.800781 169.738281 " fill-opacity="1" fill-rule="evenodd"/></g></svg>