<svg xmlns="http://www.w3.org/2000/svg" xmlns:xlink="http://www.w3.org/1999/xlink" width="500" zoomAndPan="magnify" viewBox="0 0 375 112.499997" height="150" preserveAspectRatio="xMidYMid meet" version="1.0"><defs><g/><clipPath id="165c182a1f"><path d="M 0.828125 0 L 374.167969 0 L 374.167969 112.003906 L 0.828125 112.003906 Z M 0.828125 0 " clip-rule="nonzero"/></clipPath><clipPath id="6b32d61342"><path d="M 265.257812 38.625 L 324 38.625 L 324 96.210938 L 265.257812 96.210938 Z M 265.257812 38.625 " clip-rule="nonzero"/></clipPath><clipPath id="1fdeaca175"><path d="M 265.257812 45.34375 L 265.257812 89.558594 C 265.257812 93.273438 268.265625 96.28125 271.980469 96.28125 L 317.046875 96.28125 C 320.757812 96.28125 323.765625 93.273438 323.765625 89.558594 L 323.765625 45.34375 C 323.765625 41.632812 320.757812 38.625 317.046875 38.625 L 271.980469 38.625 C 268.265625 38.625 265.257812 41.632812 265.257812 45.34375 Z M 265.257812 45.34375 " clip-rule="nonzero"/></clipPath><clipPath id="e9a2a0279b"><path d="M 186.128906 7.285156 L 215.589844 7.285156 L 215.589844 38.625 L 186.128906 38.625 Z M 186.128906 7.285156 " clip-rule="nonzero"/></clipPath><clipPath id="35108aff0e"><path d="M 194.332031 12.679688 L 204.605469 12.679688 L 204.605469 22.957031 L 194.332031 22.957031 Z M 194.332031 12.679688 " clip-rule="nonzero"/></clipPath><clipPath id="70836d63ef"><path d="M 199.46875 12.679688 C 196.632812 12.679688 194.332031 14.980469 194.332031 17.820312 C 194.332031 20.65625 196.632812 22.957031 199.46875 22.957031 C 202.304688 22.957031 204.605469 20.65625 204.605469 17.820312 C 204.605469 14.980469 202.304688 12.679688 199.46875 12.679688 Z M 199.46875 12.679688 " clip-rule="nonzero"/></clipPath><clipPath id="185fc17879"><path d="M 201.394531 22 L 214.945312 22 L 214.945312 34 L 201.394531 34 Z M 201.394531 22 " clip-rule="nonzero"/></clipPath><clipPath id="69304e6605"><path d="M 179.132812 22 L 199.246094 22 L 199.246094 39 L 179.132812 39 Z M 179.132812 22 " clip-rule="nonzero"/></clipPath></defs><g clip-path="url(#165c182a1f)"><path fill="#ffffff" d="M 0.828125 0 L 374.171875 0 L 374.171875 112.003906 L 0.828125 112.003906 Z M 0.828125 0 " fill-opacity="1" fill-rule="nonzero"/><path fill="#ffffff" d="M 0.828125 0 L 374.171875 0 L 374.171875 112.003906 L 0.828125 112.003906 Z M 0.828125 0 " fill-opacity="1" fill-rule="nonzero"/></g><g fill="#365233" fill-opacity="1"><g transform="translate(19.857495, 87.972643)"><g/></g></g><g fill="#365233" fill-opacity="1"><g transform="translate(43.17486, 87.972643)"><g><path d="M 39.625 -5.5625 C 35.257812 -1.851562 30.179688 0 24.390625 0 C 17.992188 -0.0625 12.550781 -2.363281 8.0625 -6.90625 C 3.582031 -11.445312 1.375 -16.882812 1.4375 -23.21875 C 1.5 -29.613281 3.800781 -35.050781 8.34375 -39.53125 C 12.882812 -44.019531 18.320312 -46.234375 24.65625 -46.171875 C 30.394531 -46.109375 35.414062 -44.195312 39.71875 -40.4375 L 31.375 -32.1875 C 29.34375 -33.675781 27.070312 -34.421875 24.5625 -34.421875 C 21.457031 -34.421875 18.769531 -33.347656 16.5 -31.203125 C 14.28125 -28.992188 13.171875 -26.300781 13.171875 -23.125 C 13.054688 -20.019531 14.132812 -17.332031 16.40625 -15.0625 C 18.5625 -12.90625 21.25 -11.769531 24.46875 -11.65625 C 26.976562 -11.65625 29.253906 -12.398438 31.296875 -13.890625 Z M 39.625 -5.5625 "/></g></g></g><g fill="#365233" fill-opacity="1"><g transform="translate(84.234888, 87.972643)"><g><path d="M 2.6875 -46.359375 L 14.34375 -46.359375 L 14.34375 -23.046875 C 14.34375 -22.148438 14.492188 -21.132812 14.796875 -20 C 15.148438 -18.625 15.6875 -17.367188 16.40625 -16.234375 C 18.375 -13.242188 21.179688 -11.75 24.828125 -11.75 C 28.835938 -11.75 31.738281 -13.269531 33.53125 -16.3125 C 34.1875 -17.394531 34.664062 -18.648438 34.96875 -20.078125 C 35.207031 -21.097656 35.328125 -22.113281 35.328125 -23.125 L 35.328125 -46.359375 L 47.875 -46.359375 L 47.875 0 L 35.328125 0 L 35.328125 -4.84375 C 32.398438 -1.613281 28.632812 0 24.03125 0 C 18.113281 0.0625 13.09375 -2.054688 8.96875 -6.359375 C 4.78125 -10.609375 2.6875 -15.867188 2.6875 -22.140625 Z M 2.6875 -46.359375 "/></g></g></g><g fill="#365233" fill-opacity="1"><g transform="translate(134.79789, 87.972643)"><g><path d="M 15.234375 -62.3125 L 15.234375 0 L 2.6875 0 L 2.6875 -62.3125 Z M 15.234375 -62.3125 "/></g></g></g><g fill="#365233" fill-opacity="1"><g transform="translate(152.728036, 87.972643)"><g><path d="M 35.953125 -46.171875 L 35.953125 -33.625 L 25.640625 -33.625 L 25.640625 0 L 13.09375 0 L 13.09375 -33.625 L 2.6875 -33.625 L 2.6875 -46.171875 L 13.09375 -46.171875 L 13.09375 -62.3125 L 25.640625 -62.3125 L 25.640625 -46.171875 Z M 35.953125 -46.171875 "/></g></g></g><g fill="#365233" fill-opacity="1"><g transform="translate(191.367485, 87.972643)"><g><path d="M 15.15625 -62.484375 L 15.15625 -51.90625 L 2.6875 -51.90625 L 2.6875 -62.484375 Z M 15.234375 -46.078125 L 15.234375 0 L 2.6875 0 L 2.6875 -46.078125 Z M 15.234375 -46.078125 "/></g></g></g><g fill="#365233" fill-opacity="1"><g transform="translate(209.297631, 87.972643)"><g><path d="M 56.03125 -46.171875 L 34.609375 0 L 25.109375 0 L 2.6875 -46.171875 L 17.296875 -46.171875 L 29.859375 -20.359375 L 41.515625 -46.171875 Z M 56.03125 -46.171875 "/></g></g></g><g fill="#365233" fill-opacity="1"><g transform="translate(268.031302, 87.972643)"><g/></g></g><g fill="#365233" fill-opacity="1"><g transform="translate(291.340487, 87.972643)"><g/></g></g><g fill="#365233" fill-opacity="1"><g transform="translate(314.649672, 87.972643)"><g/></g></g><g clip-path="url(#6b32d61342)"><g clip-path="url(#1fdeaca175)"><path fill="#365233" d="M 307.144531 84.976562 L 323.847656 101.675781 L 321.480469 104.042969 C 320.890625 104.636719 320.554688 105.4375 320.554688 106.273438 C 320.554688 107.113281 320.890625 107.917969 321.480469 108.507812 C 321.480469 108.507812 335.859375 122.886719 343.464844 130.492188 C 347.238281 134.265625 353.347656 134.265625 357.121094 130.492188 L 357.125 130.488281 C 360.898438 126.714844 360.898438 120.597656 357.125 116.824219 L 335.144531 94.84375 C 333.914062 93.609375 331.910156 93.609375 330.679688 94.84375 L 328.3125 97.210938 L 311.609375 80.511719 C 315.054688 76.109375 317.109375 70.570312 317.109375 64.550781 C 317.109375 50.242188 305.496094 38.625 291.183594 38.625 C 276.875 38.625 265.257812 50.242188 265.257812 64.550781 C 265.257812 78.859375 276.875 90.472656 291.183594 90.472656 C 297.203125 90.472656 302.746094 88.417969 307.144531 84.976562 Z M 332.914062 101.539062 L 352.660156 121.289062 C 353.96875 122.59375 353.96875 124.714844 352.660156 126.023438 C 352.660156 126.023438 352.65625 126.027344 352.65625 126.027344 C 351.351562 127.332031 349.234375 127.332031 347.929688 126.027344 C 347.929688 126.027344 328.179688 106.273438 328.179688 106.273438 Z M 291.183594 44.9375 C 302.011719 44.9375 310.796875 53.726562 310.796875 64.550781 C 310.796875 75.371094 302.011719 84.160156 291.183594 84.160156 C 280.359375 84.160156 271.570312 75.371094 271.570312 64.550781 C 271.570312 53.726562 280.359375 44.9375 291.183594 44.9375 Z M 291.183594 54.695312 C 296.621094 54.695312 301.039062 59.109375 301.039062 64.550781 C 301.039062 66.292969 302.453125 67.707031 304.195312 67.707031 C 305.9375 67.707031 307.351562 66.292969 307.351562 64.550781 C 307.351562 55.625 300.105469 48.382812 291.183594 48.382812 C 289.445312 48.382812 288.027344 49.796875 288.027344 51.539062 C 288.027344 53.28125 289.445312 54.695312 291.183594 54.695312 Z M 291.183594 54.695312 " fill-opacity="1" fill-rule="evenodd"/></g></g><g clip-path="url(#e9a2a0279b)"><path fill="#ffffff" d="M 186.128906 7.285156 L 215.589844 7.285156 L 215.589844 38.589844 L 186.128906 38.589844 Z M 186.128906 7.285156 " fill-opacity="1" fill-rule="nonzero"/></g><g clip-path="url(#35108aff0e)"><g clip-path="url(#70836d63ef)"><path fill="#f4ea00" d="M 194.332031 12.679688 L 204.605469 12.679688 L 204.605469 22.957031 L 194.332031 22.957031 Z M 194.332031 12.679688 " fill-opacity="1" fill-rule="nonzero"/></g></g><g clip-path="url(#185fc17879)"><path fill="#eec759" d="M 212.414062 24.210938 C 205.726562 24.179688 202.136719 27.300781 201.828125 33.765625 C 201.824219 33.847656 201.707031 33.851562 201.695312 33.769531 C 201.394531 31.660156 201.453125 29.734375 201.988281 28.0625 C 203.757812 22.539062 210.507812 21.816406 215.292969 23.5625 C 215.535156 23.648438 215.582031 23.957031 215.382812 24.117188 C 211.648438 27.101562 212.15625 35.253906 203.066406 31.722656 C 204.484375 27.308594 207.398438 24.574219 212.414062 24.210938 " fill-opacity="1" fill-rule="evenodd"/></g><g clip-path="url(#69304e6605)"><path fill="#eec759" d="M 183.507812 24.34375 C 193.1875 24.300781 198.386719 28.820312 198.828125 38.175781 C 198.835938 38.292969 199.007812 38.300781 199.023438 38.183594 C 199.457031 35.128906 199.371094 32.339844 198.597656 29.917969 C 196.035156 21.925781 186.265625 20.878906 179.335938 23.40625 C 178.992188 23.535156 178.921875 23.980469 179.207031 24.207031 C 184.613281 28.53125 183.878906 40.332031 197.039062 35.21875 C 194.980469 28.828125 190.769531 24.871094 183.507812 24.34375 " fill-opacity="1" fill-rule="evenodd"/></g></svg>