<svg xmlns="http://www.w3.org/2000/svg" xmlns:xlink="http://www.w3.org/1999/xlink" width="500" zoomAndPan="magnify" viewBox="0 0 375 112.499997" height="150" preserveAspectRatio="xMidYMid meet" version="1.0"><defs><g/><clipPath id="cae6c70d0b"><path d="M 278.84375 39.558594 L 336.335938 39.558594 L 336.335938 96.304688 L 278.84375 96.304688 Z M 278.84375 39.558594 " clip-rule="nonzero"/></clipPath><clipPath id="7aa6e8891e"><path d="M 278.84375 55.238281 L 278.84375 80.773438 C 278.84375 89.433594 285.863281 96.453125 294.523438 96.453125 L 320.898438 96.453125 C 329.558594 96.453125 336.578125 89.433594 336.578125 80.773438 L 336.578125 55.238281 C 336.578125 46.578125 329.558594 39.558594 320.898438 39.558594 L 294.523438 39.558594 C 285.863281 39.558594 278.84375 46.578125 278.84375 55.238281 Z M 278.84375 55.238281 " clip-rule="nonzero"/></clipPath><clipPath id="65b0a04b6d"><path d="M 194.613281 8.632812 L 223.683594 8.632812 L 223.683594 39.558594 L 194.613281 39.558594 Z M 194.613281 8.632812 " clip-rule="nonzero"/></clipPath><clipPath id="1219bbb00a"><path d="M 210.742188 14.101562 L 220.878906 14.101562 L 220.878906 24.238281 L 210.742188 24.238281 Z M 210.742188 14.101562 " clip-rule="nonzero"/></clipPath><clipPath id="17c7a957ec"><path d="M 215.808594 14.101562 C 213.011719 14.101562 210.742188 16.371094 210.742188 19.167969 C 210.742188 21.96875 213.011719 24.238281 215.808594 24.238281 C 218.609375 24.238281 220.878906 21.96875 220.878906 19.167969 C 220.878906 16.371094 218.609375 14.101562 215.808594 14.101562 Z M 215.808594 14.101562 " clip-rule="nonzero"/></clipPath><clipPath id="cefc78b50d"><path d="M 217.710938 24 L 231.898438 24 L 231.898438 35 L 217.710938 35 Z M 217.710938 24 " clip-rule="nonzero"/></clipPath><clipPath id="7a191081c2"><path d="M 195.648438 23 L 215.695312 23 L 215.695312 40 L 195.648438 40 Z M 195.648438 23 " clip-rule="nonzero"/></clipPath></defs><g fill="#2b2b2b" fill-opacity="1"><g transform="translate(22.444359, 88.254842)"><g/></g></g><g fill="#2b2b2b" fill-opacity="1"><g transform="translate(45.453946, 88.254842)"><g><path d="M 51.40625 -7.25 C 45.800781 -2.59375 39.398438 -0.265625 32.203125 -0.265625 C 24.066406 -0.265625 17.109375 -3.15625 11.328125 -8.9375 C 5.546875 -14.71875 2.65625 -21.675781 2.65625 -29.8125 C 2.65625 -38.007812 5.546875 -45 11.328125 -50.78125 C 17.109375 -56.5625 24.066406 -59.453125 32.203125 -59.453125 C 39.453125 -59.453125 45.851562 -57.09375 51.40625 -52.375 L 42.546875 -43.609375 C 39.546875 -45.910156 36.097656 -47.0625 32.203125 -47.0625 C 27.484375 -47.0625 23.441406 -45.378906 20.078125 -42.015625 C 16.722656 -38.660156 15.046875 -34.59375 15.046875 -29.8125 C 15.046875 -25.09375 16.722656 -21.050781 20.078125 -17.6875 C 23.441406 -14.332031 27.484375 -12.65625 32.203125 -12.65625 C 36.097656 -12.65625 39.546875 -13.800781 42.546875 -16.09375 Z M 51.40625 -7.25 "/></g></g></g><g fill="#2b2b2b" fill-opacity="1"><g transform="translate(102.161518, 88.254842)"><g><path d="M 2.65625 -45.734375 L 14.15625 -45.734375 L 14.15625 -22.734375 C 14.15625 -21.847656 14.300781 -20.847656 14.59375 -19.734375 C 14.945312 -18.367188 15.476562 -17.128906 16.1875 -16.015625 C 18.132812 -13.066406 20.90625 -11.59375 24.5 -11.59375 C 28.457031 -11.59375 31.320312 -13.09375 33.09375 -16.09375 C 33.738281 -17.15625 34.207031 -18.394531 34.5 -19.8125 C 34.738281 -20.820312 34.859375 -21.828125 34.859375 -22.828125 L 34.859375 -45.734375 L 47.25 -45.734375 L 47.25 0 L 34.859375 0 L 34.859375 -4.78125 C 31.960938 -1.59375 28.242188 0 23.703125 0 C 17.867188 0.0625 12.914062 -2.03125 8.84375 -6.28125 C 4.71875 -10.46875 2.65625 -15.660156 2.65625 -21.859375 Z M 2.65625 -45.734375 "/></g></g></g><g fill="#2b2b2b" fill-opacity="1"><g transform="translate(152.057116, 88.254842)"><g><path d="M 15.046875 -61.484375 L 15.046875 0 L 2.65625 0 L 2.65625 -61.484375 Z M 15.046875 -61.484375 "/></g></g></g><g fill="#2b2b2b" fill-opacity="1"><g transform="translate(169.750593, 88.254842)"><g><path d="M 35.46875 -45.5625 L 35.46875 -33.171875 L 25.296875 -33.171875 L 25.296875 0 L 12.921875 0 L 12.921875 -33.171875 L 2.65625 -33.171875 L 2.65625 -45.5625 L 12.921875 -45.5625 L 12.921875 -61.484375 L 25.296875 -61.484375 L 25.296875 -45.5625 Z M 35.46875 -45.5625 "/></g></g></g><g fill="#2b2b2b" fill-opacity="1"><g transform="translate(207.880022, 88.254842)"><g><path d="M 14.953125 -61.65625 L 14.953125 -51.21875 L 2.65625 -51.21875 L 2.65625 -61.65625 Z M 15.046875 -45.46875 L 15.046875 0 L 2.65625 0 L 2.65625 -45.46875 Z M 15.046875 -45.46875 "/></g></g></g><g fill="#2b2b2b" fill-opacity="1"><g transform="translate(225.5735, 88.254842)"><g><path d="M 55.296875 -45.5625 L 34.15625 0 L 24.765625 0 L 2.65625 -45.5625 L 17.078125 -45.5625 L 29.453125 -20.078125 L 40.96875 -45.5625 Z M 55.296875 -45.5625 "/></g></g></g><g fill="#2b2b2b" fill-opacity="1"><g transform="translate(283.52687, 88.254842)"><g/></g></g><g fill="#2b2b2b" fill-opacity="1"><g transform="translate(306.528386, 88.254842)"><g/></g></g><g fill="#2b2b2b" fill-opacity="1"><g transform="translate(329.529902, 88.254842)"><g/></g></g><g clip-path="url(#cae6c70d0b)"><g clip-path="url(#7aa6e8891e)"><path fill="#2b2b2b" d="M 320.183594 85.304688 L 336.667969 101.789062 L 334.332031 104.125 C 333.75 104.710938 333.417969 105.5 333.417969 106.328125 C 333.417969 107.15625 333.75 107.949219 334.332031 108.53125 C 334.332031 108.53125 348.523438 122.71875 356.03125 130.230469 C 359.753906 133.953125 365.785156 133.953125 369.507812 130.230469 L 369.511719 130.226562 C 373.238281 126.5 373.238281 120.460938 369.511719 116.738281 L 347.820312 95.046875 C 346.601562 93.828125 344.628906 93.828125 343.414062 95.046875 L 341.078125 97.382812 L 324.589844 80.898438 C 327.992188 76.554688 330.019531 71.085938 330.019531 65.144531 C 330.019531 51.023438 318.554688 39.558594 304.429688 39.558594 C 290.308594 39.558594 278.84375 51.023438 278.84375 65.144531 C 278.84375 79.265625 290.308594 90.730469 304.429688 90.730469 C 310.371094 90.730469 315.84375 88.703125 320.183594 85.304688 Z M 345.617188 101.652344 L 365.105469 121.144531 C 366.398438 122.433594 366.398438 124.527344 365.105469 125.816406 C 365.105469 125.816406 365.101562 125.824219 365.101562 125.824219 C 363.8125 127.109375 361.726562 127.109375 360.4375 125.824219 C 360.4375 125.824219 340.941406 106.328125 340.941406 106.328125 Z M 304.429688 45.789062 C 315.117188 45.789062 323.789062 54.460938 323.789062 65.144531 C 323.789062 75.828125 315.117188 84.5 304.429688 84.5 C 293.746094 84.5 285.074219 75.828125 285.074219 65.144531 C 285.074219 54.460938 293.746094 45.789062 304.429688 45.789062 Z M 304.429688 55.417969 C 309.796875 55.417969 314.15625 59.777344 314.15625 65.144531 C 314.15625 66.863281 315.550781 68.261719 317.273438 68.261719 C 318.992188 68.261719 320.386719 66.863281 320.386719 65.144531 C 320.386719 56.335938 313.238281 49.1875 304.429688 49.1875 C 302.714844 49.1875 301.316406 50.582031 301.316406 52.304688 C 301.316406 54.023438 302.714844 55.417969 304.429688 55.417969 Z M 304.429688 55.417969 " fill-opacity="1" fill-rule="evenodd"/></g></g><g clip-path="url(#65b0a04b6d)"><path fill="#ffffff" d="M 194.613281 8.632812 L 223.683594 8.632812 L 223.683594 39.523438 L 194.613281 39.523438 Z M 194.613281 8.632812 " fill-opacity="1" fill-rule="nonzero"/></g><g clip-path="url(#1219bbb00a)"><g clip-path="url(#17c7a957ec)"><path fill="#f4ea00" d="M 210.742188 14.101562 L 220.878906 14.101562 L 220.878906 24.238281 L 210.742188 24.238281 Z M 210.742188 14.101562 " fill-opacity="1" fill-rule="nonzero"/></g></g><g clip-path="url(#cefc78b50d)"><path fill="#eec759" d="M 228.585938 25.476562 C 221.984375 25.445312 218.441406 28.527344 218.136719 34.90625 C 218.136719 34.988281 218.015625 34.992188 218.007812 34.910156 C 217.710938 32.828125 217.769531 30.925781 218.296875 29.277344 C 220.042969 23.828125 226.703125 23.113281 231.429688 24.835938 C 231.664062 24.921875 231.710938 25.226562 231.515625 25.382812 C 227.832031 28.332031 228.332031 36.375 219.359375 32.886719 C 220.761719 28.535156 223.636719 25.835938 228.585938 25.476562 " fill-opacity="1" fill-rule="evenodd"/></g><g clip-path="url(#7a191081c2)"><path fill="#eec759" d="M 200.0625 25.609375 C 209.621094 25.566406 214.75 30.03125 215.191406 39.265625 C 215.195312 39.382812 215.367188 39.390625 215.382812 39.273438 C 215.808594 36.257812 215.726562 33.507812 214.960938 31.113281 C 212.429688 23.222656 202.789062 22.1875 195.945312 24.6875 C 195.605469 24.808594 195.535156 25.25 195.820312 25.476562 C 201.15625 29.746094 200.429688 41.394531 213.421875 36.34375 C 211.390625 30.039062 207.230469 26.132812 200.0625 25.609375 " fill-opacity="1" fill-rule="evenodd"/></g></svg>